REM DIRINDEX 1\5,1\2\6,1\2\7,1\3\8,1\3\9,1\4\10,1\4\11,1\4\12
REM DIRNAME cjc026,folder01,folder02,folder03,folder04,folder05,folder06,folder07,folder08,folder09,folder10,folder11
TITLE ""
FILE "EJE_DB3000_5th_5C_09.mp3" MP3
  TRACK 01 AUDIO
    TITLE "0:"
    INDEX 01 00:00:00
  TRACK 02 AUDIO
    TITLE "10:cjc026_10446"
    INDEX 01 00:00:08
  TRACK 03 AUDIO
    TITLE "0:"
    INDEX 01 00:01:35
  TRACK 04 AUDIO
    TITLE "11:cjc026_10447"
    INDEX 01 00:01:73
  TRACK 05 AUDIO
    TITLE "0:"
    INDEX 01 00:03:34
  TRACK 06 AUDIO
    TITLE "12:cjc026_10448"
    INDEX 01 00:03:69
  TRACK 07 AUDIO
    TITLE "0:"
    INDEX 01 00:05:21
  TRACK 08 AUDIO
    TITLE "10:cjc026_10449"
    INDEX 01 00:05:59
  TRACK 09 AUDIO
    TITLE "0:"
    INDEX 01 00:07:12
  TRACK 10 AUDIO
    TITLE "11:cjc026_10450"
    INDEX 01 00:07:50
  TRACK 11 AUDIO
    TITLE "0:"
    INDEX 01 00:09:21
  TRACK 12 AUDIO
    TITLE "12:cjc026_10451"
    INDEX 01 00:09:59
  TRACK 13 AUDIO
    TITLE "0:"
    INDEX 01 00:11:12
  TRACK 14 AUDIO
    TITLE "10:cjc026_10452"
    INDEX 01 00:11:49
  TRACK 15 AUDIO
    TITLE "0:"
    INDEX 01 00:13:02
  TRACK 16 AUDIO
    TITLE "11:cjc026_10453"
    INDEX 01 00:13:40
  TRACK 17 AUDIO
    TITLE "0:"
    INDEX 01 00:14:67
  TRACK 18 AUDIO
    TITLE "12:cjc026_10454"
    INDEX 01 00:15:27
  TRACK 19 AUDIO
    TITLE "0:"
    INDEX 01 00:16:58
  TRACK 20 AUDIO
    TITLE "10:cjc026_10455"
    INDEX 01 00:17:21
  TRACK 21 AUDIO
    TITLE "0:"
    INDEX 01 00:18:45
  TRACK 22 AUDIO
    TITLE "11:cjc026_10456"
    INDEX 01 00:19:08
  TRACK 23 AUDIO
    TITLE "0:"
    INDEX 01 00:20:33
  TRACK 24 AUDIO
    TITLE "12:cjc026_10457"
    INDEX 01 00:20:68
  TRACK 25 AUDIO
    TITLE "0:"
    INDEX 01 00:22:18
  TRACK 26 AUDIO
    TITLE "10:cjc026_10458"
    INDEX 01 00:22:56
  TRACK 27 AUDIO
    TITLE "0:"
    INDEX 01 00:24:00
  TRACK 28 AUDIO
    TITLE "11:cjc026_10459"
    INDEX 01 00:24:36
  TRACK 29 AUDIO
    TITLE "0:"
    INDEX 01 00:25:69
  TRACK 30 AUDIO
    TITLE "12:cjc026_10460"
    INDEX 01 00:26:29
  TRACK 31 AUDIO
    TITLE "0:"
    INDEX 01 00:27:48
  TRACK 32 AUDIO
    TITLE "10:cjc026_10461"
    INDEX 01 00:28:08
  TRACK 33 AUDIO
    TITLE "0:"
    INDEX 01 00:29:33
  TRACK 34 AUDIO
    TITLE "11:cjc026_10462"
    INDEX 01 00:29:68
  TRACK 35 AUDIO
    TITLE "0:"
    INDEX 01 00:31:37
  TRACK 36 AUDIO
    TITLE "12:cjc026_10463"
    INDEX 01 00:31:72
  TRACK 37 AUDIO
    TITLE "0:"
    INDEX 01 00:33:22
  TRACK 38 AUDIO
    TITLE "10:cjc026_10464"
    INDEX 01 00:33:60
  TRACK 39 AUDIO
    TITLE "0:"
    INDEX 01 00:35:15
  TRACK 40 AUDIO
    TITLE "11:cjc026_10465"
    INDEX 01 00:35:50
  TRACK 41 AUDIO
    TITLE "0:"
    INDEX 01 00:37:06
  TRACK 42 AUDIO
    TITLE "12:cjc026_10466"
    INDEX 01 00:37:46
  TRACK 43 AUDIO
    TITLE "0:"
    INDEX 01 00:38:74
  TRACK 44 AUDIO
    TITLE "10:cjc026_10467"
    INDEX 01 00:39:36
  TRACK 45 AUDIO
    TITLE "0:"
    INDEX 01 00:40:48
  TRACK 46 AUDIO
    TITLE "11:cjc026_10468"
    INDEX 01 00:41:08
  TRACK 47 AUDIO
    TITLE "0:"
    INDEX 01 00:42:22
  TRACK 48 AUDIO
    TITLE "12:cjc026_10469"
    INDEX 01 00:42:57
  TRACK 49 AUDIO
    TITLE "0:"
    INDEX 01 00:43:69
  TRACK 50 AUDIO
    TITLE "10:cjc026_10470"
    INDEX 01 00:44:29
  TRACK 51 AUDIO
    TITLE "0:"
    INDEX 01 00:45:45
  TRACK 52 AUDIO
    TITLE "11:cjc026_10471"
    INDEX 01 00:46:08
  TRACK 53 AUDIO
    TITLE "0:"
    INDEX 01 00:47:33
  TRACK 54 AUDIO
    TITLE "12:cjc026_10472"
    INDEX 01 00:47:68
  TRACK 55 AUDIO
    TITLE "0:"
    INDEX 01 00:49:10
  TRACK 56 AUDIO
    TITLE "10:cjc026_10473"
    INDEX 01 00:49:48
  TRACK 57 AUDIO
    TITLE "0:"
    INDEX 01 00:50:65
  TRACK 58 AUDIO
    TITLE "11:cjc026_10474"
    INDEX 01 00:51:25
  TRACK 59 AUDIO
    TITLE "0:"
    INDEX 01 00:52:47
  TRACK 60 AUDIO
    TITLE "12:cjc026_10475"
    INDEX 01 00:53:07
  TRACK 61 AUDIO
    TITLE "0:"
    INDEX 01 00:54:24
  TRACK 62 AUDIO
    TITLE "10:cjc026_10476"
    INDEX 01 00:54:62
  TRACK 63 AUDIO
    TITLE "0:"
    INDEX 01 00:56:03
  TRACK 64 AUDIO
    TITLE "11:cjc026_10477"
    INDEX 01 00:56:41
  TRACK 65 AUDIO
    TITLE "0:"
    INDEX 01 00:57:66
  TRACK 66 AUDIO
    TITLE "12:cjc026_10478"
    INDEX 01 00:58:29
  TRACK 67 AUDIO
    TITLE "0:"
    INDEX 01 00:59:48
  TRACK 68 AUDIO
    TITLE "10:cjc026_10479"
    INDEX 01 01:00:11
  TRACK 69 AUDIO
    TITLE "0:"
    INDEX 01 01:01:17
  TRACK 70 AUDIO
    TITLE "11:cjc026_10480"
    INDEX 01 01:01:55
  TRACK 71 AUDIO
    TITLE "0:"
    INDEX 01 01:03:72
  TRACK 72 AUDIO
    TITLE "12:cjc026_10481"
    INDEX 01 01:04:35
  TRACK 73 AUDIO
    TITLE "0:"
    INDEX 01 01:05:41
  TRACK 74 AUDIO
    TITLE "10:cjc026_10482"
    INDEX 01 01:06:01
  TRACK 75 AUDIO
    TITLE "0:"
    INDEX 01 01:07:34
  TRACK 76 AUDIO
    TITLE "11:cjc026_10483"
    INDEX 01 01:07:67
  TRACK 77 AUDIO
    TITLE "0:"
    INDEX 01 01:09:09
  TRACK 78 AUDIO
    TITLE "12:cjc026_10484"
    INDEX 01 01:09:38
  TRACK 79 AUDIO
    TITLE "0:"
    INDEX 01 01:10:71
